<svg width="19" height="19" viewBox="0 0 19 19" fill="none" xmlns="http://www.w3.org/2000/svg">
<path d="M16.4226 13.2023L13.8773 12.9123C13.266 12.8423 12.6647 13.0523 12.2338 13.4823L10.39 15.3223C7.55408 13.8823 5.22924 11.5723 3.78623 8.73227L5.6401 6.88227C6.07099 6.45227 6.28143 5.85227 6.21129 5.24227L5.92068 2.72227C5.80043 1.71227 4.94866 0.952271 3.92653 0.952271H2.19291C1.06056 0.952271 0.118594 1.89227 0.18874 3.02227C0.719846 11.5623 7.56411 18.3823 16.1119 18.9123C17.2443 18.9823 18.1862 18.0423 18.1862 16.9123V15.1823C18.1963 14.1723 17.4347 13.3223 16.4226 13.2023Z" fill="black"/>
</svg>
